<mxfile host="app.diagrams.net" modified="2023-05-01T08:34:30.967Z" agent="Mozilla/5.0 (Windows NT 10.0; Win64; x64) AppleWebKit/537.36 (KHTML, like Gecko) Chrome/112.0.0.0 Safari/537.36 Edg/112.0.1722.64" etag="m3OoWM0UmC-O4s1VNn7n" version="21.2.3" type="github">
  <diagram name="第 1 页" id="1SKLhyAFgRJ4PJNIMrWx">
    <mxGraphModel dx="1505" dy="989" grid="1" gridSize="10" guides="1" tooltips="1" connect="1" arrows="1" fold="1" page="1" pageScale="1" pageWidth="827" pageHeight="1169" math="0" shadow="0">
      <root>
        <mxCell id="0" />
        <mxCell id="1" parent="0" />
        <mxCell id="V5AN8gaBdBa56hisMkO9-4" value="" style="edgeStyle=orthogonalEdgeStyle;rounded=0;orthogonalLoop=1;jettySize=auto;html=1;" edge="1" parent="1" source="V5AN8gaBdBa56hisMkO9-1" target="V5AN8gaBdBa56hisMkO9-3">
          <mxGeometry relative="1" as="geometry" />
        </mxCell>
        <mxCell id="V5AN8gaBdBa56hisMkO9-1" value="创建文章请求" style="rounded=1;whiteSpace=wrap;html=1;" vertex="1" parent="1">
          <mxGeometry x="30" y="40" width="120" height="60" as="geometry" />
        </mxCell>
        <mxCell id="V5AN8gaBdBa56hisMkO9-2" value="http://[ServeIp]:[port]&lt;br&gt;/content_api/article/createOrUpdate" style="text;html=1;strokeColor=none;fillColor=none;align=left;verticalAlign=middle;whiteSpace=wrap;rounded=0;" vertex="1" parent="1">
          <mxGeometry x="160" y="55" width="360" height="30" as="geometry" />
        </mxCell>
        <mxCell id="V5AN8gaBdBa56hisMkO9-6" value="" style="edgeStyle=orthogonalEdgeStyle;rounded=0;orthogonalLoop=1;jettySize=auto;html=1;" edge="1" parent="1" source="V5AN8gaBdBa56hisMkO9-3" target="V5AN8gaBdBa56hisMkO9-5">
          <mxGeometry relative="1" as="geometry" />
        </mxCell>
        <mxCell id="V5AN8gaBdBa56hisMkO9-3" value="Aop请求体过滤&lt;br&gt;替换敏感词" style="whiteSpace=wrap;html=1;rounded=1;" vertex="1" parent="1">
          <mxGeometry x="30" y="180" width="120" height="60" as="geometry" />
        </mxCell>
        <mxCell id="V5AN8gaBdBa56hisMkO9-10" value="" style="edgeStyle=orthogonalEdgeStyle;rounded=0;orthogonalLoop=1;jettySize=auto;html=1;" edge="1" parent="1" source="V5AN8gaBdBa56hisMkO9-5" target="V5AN8gaBdBa56hisMkO9-9">
          <mxGeometry relative="1" as="geometry" />
        </mxCell>
        <mxCell id="V5AN8gaBdBa56hisMkO9-5" value="调用ArticleController" style="whiteSpace=wrap;html=1;rounded=1;" vertex="1" parent="1">
          <mxGeometry x="30" y="320" width="120" height="60" as="geometry" />
        </mxCell>
        <mxCell id="V5AN8gaBdBa56hisMkO9-12" value="" style="edgeStyle=orthogonalEdgeStyle;rounded=0;orthogonalLoop=1;jettySize=auto;html=1;" edge="1" parent="1" source="V5AN8gaBdBa56hisMkO9-9" target="V5AN8gaBdBa56hisMkO9-11">
          <mxGeometry relative="1" as="geometry" />
        </mxCell>
        <mxCell id="V5AN8gaBdBa56hisMkO9-14" value="" style="edgeStyle=orthogonalEdgeStyle;rounded=0;orthogonalLoop=1;jettySize=auto;html=1;" edge="1" parent="1" source="V5AN8gaBdBa56hisMkO9-9" target="V5AN8gaBdBa56hisMkO9-13">
          <mxGeometry relative="1" as="geometry" />
        </mxCell>
        <mxCell id="V5AN8gaBdBa56hisMkO9-9" value="消息队列发送" style="whiteSpace=wrap;html=1;rounded=1;fillColor=#dae8fc;strokeColor=#6c8ebf;" vertex="1" parent="1">
          <mxGeometry x="230" y="320" width="120" height="60" as="geometry" />
        </mxCell>
        <mxCell id="V5AN8gaBdBa56hisMkO9-11" value="返回创建成功" style="ellipse;whiteSpace=wrap;html=1;rounded=1;fillColor=#d5e8d4;strokeColor=#82b366;" vertex="1" parent="1">
          <mxGeometry x="450" y="310" width="80" height="80" as="geometry" />
        </mxCell>
        <mxCell id="V5AN8gaBdBa56hisMkO9-16" value="" style="edgeStyle=orthogonalEdgeStyle;rounded=0;orthogonalLoop=1;jettySize=auto;html=1;" edge="1" parent="1" source="V5AN8gaBdBa56hisMkO9-13" target="V5AN8gaBdBa56hisMkO9-15">
          <mxGeometry relative="1" as="geometry" />
        </mxCell>
        <mxCell id="V5AN8gaBdBa56hisMkO9-13" value="队列消费" style="whiteSpace=wrap;html=1;rounded=1;" vertex="1" parent="1">
          <mxGeometry x="230" y="180" width="120" height="60" as="geometry" />
        </mxCell>
        <mxCell id="V5AN8gaBdBa56hisMkO9-15" value="调用Minio文件上传" style="whiteSpace=wrap;html=1;rounded=1;fillColor=#d5e8d4;strokeColor=#82b366;" vertex="1" parent="1">
          <mxGeometry x="430" y="180" width="120" height="60" as="geometry" />
        </mxCell>
      </root>
    </mxGraphModel>
  </diagram>
</mxfile>
